<!-- Generated by IcoMoon.io -->
<svg version="1.1" xmlns="http://www.w3.org/2000/svg" width="1024" height="1024" viewBox="0 0 1024 1024">
<title></title>
<g id="icomoon-ignore">
</g>
<path fill="#f7931a" d="M1008.64 635.904c-68.352 274.304-346.24 441.216-620.544 372.8-274.176-67.904-441.216-346.304-372.736-620.224 68.352-274.56 346.24-441.6 620.416-373.248 274.368 68.48 441.28 346.24 372.928 620.8zM737.728 439.040c10.24-68.096-41.6-104.768-112.64-129.28l23.040-92.16-56.192-14.080-22.4 89.92c-14.72-3.712-30.080-7.168-45.44-10.624l22.464-90.816-56.32-14.080-23.040 92.352c-12.16-2.88-24.128-5.632-35.84-8.512l-77.44-19.2-14.912 60.032s41.6 9.6 40.768 10.112c22.848 5.76 26.88 20.736 26.24 32.64l-63.040 252.8c-3.2 7.040-10.24 17.28-26.24 13.44 0.64 0.832-40.96-10.24-40.96-10.24l-28.16 64.384 72.96 18.176 39.68 10.368-23.040 93.44 56.32 13.888 23.040-92.352c15.36 4.16 30.080 8 44.8 11.648l-21.696 91.904 56.32 14.080 23.232-93.248c95.808 18.112 167.808 10.88 198.144-75.84 24.32-69.76-1.28-110.080-51.84-136.32 36.48-8.32 64-32.512 71.68-82.432zM609.28 619.072c-17.28 69.76-134.784 32-172.8 22.592l30.72-123.712c38.144 9.6 160.256 28.352 142.080 101.12zM626.688 437.952c-15.808 63.552-113.6 31.36-145.28 23.424l27.904-112.64c31.744 7.68 133.888 22.4 117.376 88.96z"></path>
</svg>
